<svg xmlns="http://www.w3.org/2000/svg" xmlns:xlink="http://www.w3.org/1999/xlink" aria-hidden="true" role="img" class="iconify iconify--logos" width="31.88" height="32" preserveAspectRatio="xMidYMid meet" viewBox="0 0 256 257"><defs><linearGradient id="IconifyId1813088fe1fbc01fb466" x1="-.828%" x2="57.636%" y1="7.652%" y2="78.411%"><stop offset="0%" stop-color="#00C4B3"></stop><stop offset="54.289%" stop-color="#0073E6"></stop><stop offset="100%" stop-color="#4642D9"></stop></linearGradient><linearGradient id="IconifyId1813088fe1fbc01fb467" x1="-.828%" x2="57.636%" y1="7.652%" y2="78.411%"><stop offset="0%" stop-color="#00C4B3"></stop><stop offset="54.289%" stop-color="#0073E6"></stop><stop offset="100%" stop-color="#4642D9"></stop></linearGradient></defs><path fill="url(#IconifyId1813088fe1fbc01fb466)" d="m158.04 105.23l-29.72 51.97l-29.96-51.97l-29.96 51.97l59.68 103.61a12.5 12.5 0 0 0 21.65 0l29.96-51.97l-29.96-51.64l-29.96 51.97l-29.96-51.97l29.96-51.97l29.96 51.97l29.96-51.97z"></path><path fill="url(#IconifyId1813088fe1fbc01fb467)" d="M157.8 1.39l-29.72 51.97l-29.96-51.97L68.16 53.36l29.96 51.97l29.96-51.97l29.96 51.97l29.72-51.97L157.8 1.39zM98.12 157.2l-29.96 51.97l59.92 103.94a12.5 12.5 0 0 1-21.65 0L1.36 130.68a12.5 12.5 0 0 1 0-12.5L96.47 53.36a12.5 12.5 0 0 1 21.65 0l29.96 51.97l-29.96 51.97l-20 34.8z"></path></svg>
